<svg xmlns="http://www.w3.org/2000/svg" width="795" height="365"><g transform="translate(307.5,30)"><path class="link" d="M0,0C0,40 -187.5,40 -187.5,80" style="opacity: 1; fill: none; stroke: rgb(204, 204, 204);"/><path class="link" d="M0,0C0,40 0,40 0,80" style="opacity: 1; fill: none; stroke: rgb(204, 204, 204);"/><path class="link" d="M0,0C0,40 187.5,40 187.5,80" style="opacity: 1; fill: none; stroke: rgb(204, 204, 204);"/><path class="link" d="M-187.5,80C-187.5,120 -287.5,120 -287.5,160" style="opacity: 1; fill: none; stroke: rgb(204, 204, 204);"/><path class="link" d="M-187.5,80C-187.5,120 -237.5,120 -237.5,160" style="opacity: 1; fill: none; stroke: rgb(204, 204, 204);"/><path class="link" d="M-187.5,80C-187.5,120 -187.5,120 -187.5,160" style="opacity: 1; fill: none; stroke: rgb(204, 204, 204);"/><path class="link" d="M-187.5,80C-187.5,120 -137.5,120 -137.5,160" style="opacity: 1; fill: none; stroke: rgb(204, 204, 204);"/><path class="link" d="M-187.5,80C-187.5,120 -87.5,120 -87.5,160" style="opacity: 1; fill: none; stroke: rgb(204, 204, 204);"/><path class="link" d="M-137.5,160C-137.5,200 -137.5,200 -137.5,240" style="opacity: 1; fill: none; stroke: rgb(204, 204, 204);"/><path class="link" d="M187.5,80C187.5,120 12.5,120 12.5,160" style="opacity: 1; fill: none; stroke: rgb(204, 204, 204);"/><path class="link" d="M187.5,80C187.5,120 62.5,120 62.5,160" style="opacity: 1; fill: none; stroke: rgb(204, 204, 204);"/><path class="link" d="M187.5,80C187.5,120 187.5,120 187.5,160" style="opacity: 1; fill: none; stroke: rgb(204, 204, 204);"/><path class="link" d="M187.5,80C187.5,120 312.5,120 312.5,160" style="opacity: 1; fill: none; stroke: rgb(204, 204, 204);"/><path class="link" d="M187.5,80C187.5,120 362.5,120 362.5,160" style="opacity: 1; fill: none; stroke: rgb(204, 204, 204);"/><path class="link" d="M62.5,160C62.5,200 62.5,200 62.5,240" style="opacity: 1; fill: none; stroke: rgb(204, 204, 204);"/><path class="link" d="M312.5,160C312.5,200 162.5,200 162.5,240" style="opacity: 1; fill: none; stroke: rgb(204, 204, 204);"/><path class="link" d="M312.5,160C312.5,200 212.5,200 212.5,240" style="opacity: 1; fill: none; stroke: rgb(204, 204, 204);"/><path class="link" d="M312.5,160C312.5,200 262.5,200 262.5,240" style="opacity: 1; fill: none; stroke: rgb(204, 204, 204);"/><path class="link" d="M312.5,160C312.5,200 312.5,200 312.5,240" style="opacity: 1; fill: none; stroke: rgb(204, 204, 204);"/><path class="link" d="M312.5,160C312.5,200 362.5,200 362.5,240" style="opacity: 1; fill: none; stroke: rgb(204, 204, 204);"/><path class="link" d="M312.5,160C312.5,200 412.5,200 412.5,240" style="opacity: 1; fill: none; stroke: rgb(204, 204, 204);"/><path class="link" d="M312.5,160C312.5,200 462.5,200 462.5,240" style="opacity: 1; fill: none; stroke: rgb(204, 204, 204);"/><path class="link" d="M312.5,240C312.5,280 312.5,280 312.5,320" style="opacity: 1; fill: none; stroke: rgb(204, 204, 204);"/><path class="link" d="M412.5,240C412.5,280 412.5,280 412.5,320" style="opacity: 1; fill: none; stroke: rgb(204, 204, 204);"/><g class="node element" transform="translate(0,0)" style="opacity: 1; font-size: 11px; font-weight: bold;"><circle r="10" style="stroke-width: 1.5px; fill: steelblue; stroke: rgb(53, 94, 149);"/><text text-anchor="middle" dy="-15">html</text></g><g class="node element" transform="translate(-187.5,80)" style="opacity: 1; font-size: 11px; font-weight: bold;"><circle r="10" style="stroke-width: 1.5px; fill: steelblue; stroke: rgb(53, 94, 149);"/><text text-anchor="middle" dy="-15">head</text></g><g class="node text indent" transform="translate(-287.5,160)" style="opacity: 1; font-size: 11px; font-weight: bold;"><circle r="10" style="stroke-width: 1.5px; fill: rgb(255, 204, 0); stroke: orange;"/><text text-anchor="middle" dy="-15">#text</text></g><g class="node element" transform="translate(-237.5,160)" style="opacity: 1; font-size: 11px; font-weight: bold;"><circle r="10" style="stroke-width: 1.5px; fill: steelblue; stroke: rgb(53, 94, 149);"/><text text-anchor="middle" dy="-15">meta</text></g><g class="node text indent" transform="translate(-187.5,160)" style="opacity: 1; font-size: 11px; font-weight: bold;"><circle r="10" style="stroke-width: 1.5px; fill: rgb(255, 204, 0); stroke: orange;"/><text text-anchor="middle" dy="-15">#text</text></g><g class="node element" transform="translate(-137.5,160)" style="opacity: 1; font-size: 11px; font-weight: bold;"><circle r="10" style="stroke-width: 1.5px; fill: steelblue; stroke: rgb(53, 94, 149);"/><text text-anchor="middle" dy="-15">title</text></g><g class="node text" transform="translate(-137.5,240)" style="opacity: 1; font-size: 11px; font-weight: bold;"><circle r="10" style="stroke-width: 1.5px; fill: rgb(80, 180, 86); stroke: rgb(13, 149, 44);"/><text text-anchor="middle" dy="-15">#text</text></g><g class="node text indent" transform="translate(-87.5,160)" style="opacity: 1; font-size: 11px; font-weight: bold;"><circle r="10" style="stroke-width: 1.5px; fill: rgb(255, 204, 0); stroke: orange;"/><text text-anchor="middle" dy="-15">#text</text></g><g class="node text indent" transform="translate(0,80)" style="opacity: 1; font-size: 11px; font-weight: bold;"><circle r="10" style="stroke-width: 1.5px; fill: rgb(255, 204, 0); stroke: orange;"/><text text-anchor="middle" dy="-15">#text</text></g><g class="node element" transform="translate(187.5,80)" style="opacity: 1; font-size: 11px; font-weight: bold;"><circle r="10" style="stroke-width: 1.5px; fill: steelblue; stroke: rgb(53, 94, 149);"/><text text-anchor="middle" dy="-15">body</text></g><g class="node text indent" transform="translate(12.5,160)" style="opacity: 1; font-size: 11px; font-weight: bold;"><circle r="10" style="stroke-width: 1.5px; fill: rgb(255, 204, 0); stroke: orange;"/><text text-anchor="middle" dy="-15">#text</text></g><g class="node element" transform="translate(62.5,160)" style="opacity: 1; font-size: 11px; font-weight: bold;"><circle r="10" style="stroke-width: 1.5px; fill: steelblue; stroke: rgb(53, 94, 149);"/><text text-anchor="middle" dy="-15">h1#title</text></g><g class="node text" transform="translate(62.5,240)" style="opacity: 1; font-size: 11px; font-weight: bold;"><circle r="10" style="stroke-width: 1.5px; fill: rgb(80, 180, 86); stroke: rgb(13, 149, 44);"/><text text-anchor="middle" dy="-15">#text</text></g><g class="node text indent" transform="translate(187.5,160)" style="opacity: 1; font-size: 11px; font-weight: bold;"><circle r="10" style="stroke-width: 1.5px; fill: rgb(255, 204, 0); stroke: orange;"/><text text-anchor="middle" dy="-15">#text</text></g><g class="node element" transform="translate(312.5,160)" style="opacity: 1; font-size: 11px; font-weight: bold;"><circle r="10" style="stroke-width: 1.5px; fill: steelblue; stroke: rgb(53, 94, 149);"/><text text-anchor="middle" dy="-15">div.contact</text></g><g class="node text indent" transform="translate(162.5,240)" style="opacity: 1; font-size: 11px; font-weight: bold;"><circle r="10" style="stroke-width: 1.5px; fill: rgb(255, 204, 0); stroke: orange;"/><text text-anchor="middle" dy="-15">#text</text></g><g class="node comment" transform="translate(212.5,240)" style="opacity: 1; font-size: 11px; font-weight: bold;"><circle r="10" style="stroke-width: 1.5px; fill: rgb(154, 80, 150); stroke: purple;"/><text text-anchor="middle" dy="-15">&lt;!-- --&gt;</text></g><g class="node text indent" transform="translate(262.5,240)" style="opacity: 1; font-size: 11px; font-weight: bold;"><circle r="10" style="stroke-width: 1.5px; fill: rgb(255, 204, 0); stroke: orange;"/><text text-anchor="middle" dy="-15">#text</text></g><g class="node element" transform="translate(312.5,240)" style="opacity: 1; font-size: 11px; font-weight: bold;"><circle r="10" style="stroke-width: 1.5px; fill: steelblue; stroke: rgb(53, 94, 149);"/><text text-anchor="middle" dy="-15">h2</text></g><g class="node text" transform="translate(312.5,320)" style="opacity: 1; font-size: 11px; font-weight: bold;"><circle r="10" style="stroke-width: 1.5px; fill: rgb(80, 180, 86); stroke: rgb(13, 149, 44);"/><text text-anchor="middle" dy="-15">#text</text></g><g class="node text indent" transform="translate(362.5,240)" style="opacity: 1; font-size: 11px; font-weight: bold;"><circle r="10" style="stroke-width: 1.5px; fill: rgb(255, 204, 0); stroke: orange;"/><text text-anchor="middle" dy="-15">#text</text></g><g class="node element" transform="translate(412.5,240)" style="opacity: 1; font-size: 11px; font-weight: bold;"><circle r="10" style="stroke-width: 1.5px; fill: steelblue; stroke: rgb(53, 94, 149);"/><text text-anchor="middle" dy="-15">p#twitter</text></g><g class="node text" transform="translate(412.5,320)" style="opacity: 1; font-size: 11px; font-weight: bold;"><circle r="10" style="stroke-width: 1.5px; fill: rgb(80, 180, 86); stroke: rgb(13, 149, 44);"/><text text-anchor="middle" dy="-15">#text</text></g><g class="node text indent" transform="translate(462.5,240)" style="opacity: 1; font-size: 11px; font-weight: bold;"><circle r="10" style="stroke-width: 1.5px; fill: rgb(255, 204, 0); stroke: orange;"/><text text-anchor="middle" dy="-15">#text</text></g><g class="node text indent" transform="translate(362.5,160)" style="opacity: 1; font-size: 11px; font-weight: bold;"><circle r="10" style="stroke-width: 1.5px; fill: rgb(255, 204, 0); stroke: orange;"/><text text-anchor="middle" dy="-15">#text</text></g></g></svg>